<?xml version="1.0" encoding="utf-8"?>
<!-- Generator: Adobe Illustrator 16.0.3, SVG Export Plug-In . SVG Version: 6.00 Build 0)  -->
<!DOCTYPE svg PUBLIC "-//W3C//DTD SVG 1.1//EN" "http://www.w3.org/Graphics/SVG/1.1/DTD/svg11.dtd">
<svg version="1.1" xmlns="http://www.w3.org/2000/svg" xmlns:xlink="http://www.w3.org/1999/xlink" x="0px" y="0px"
	 width="511.375px" height="300.408px" viewBox="61.671 52.413 511.375 300.408"
	 enable-background="new 61.671 52.413 511.375 300.408" xml:space="preserve">
<g id="Layer_2" display="none">
	<g id="Layer_6" display="inline">
		<path fill="#382A4F" d="M546.859,73.075h-459c-43.354,0-78.5,35.146-78.5,78.5v197c0,43.354,35.146,78.5,78.5,78.5h459
			c43.354,0,78.5-35.146,78.5-78.5v-197C625.359,108.22,590.214,73.075,546.859,73.075z"/>
	</g>
</g>
<g id="Layer_1">
	<g id="Layer_16">
	</g>
	<g id="Layer_12">
		<g>
			<g>
				<g>
					<g>
						<path fill="#382A4F" d="M471.318,149.365c-56.094,0-101.729,45.635-101.729,101.727c0,56.093,45.635,101.729,101.729,101.729
							c22.193,0,42.748-7.15,59.487-19.259v14.331h42.24v-96.801C573.047,195,527.412,149.365,471.318,149.365z M471.318,310.581
							c-32.803,0-59.487-26.686-59.487-59.488c0-32.8,26.686-59.487,59.487-59.487c32.803,0,59.487,26.688,59.487,59.487
							C530.807,283.895,504.121,310.581,471.318,310.581z"/>
					</g>
					<g>
						<path fill="#382A4F" d="M218.999,272.211h43.917c1.444-6.814,2.21-13.879,2.21-21.119c0-7.239-0.766-14.303-2.21-21.12
							c-9.75-45.99-50.664-80.606-99.518-80.606c-56.092,0-101.727,45.634-101.727,101.726c0,56.094,45.635,101.728,101.727,101.728
							c46.711,0,86.162-31.646,98.055-74.623h-45.127c-9.876,19.206-29.885,32.384-52.928,32.384
							c-25.364,0-47.061-15.965-55.6-38.369h69.065H218.999L218.999,272.211z M163.398,191.605
							c25.365,0,47.062,15.964,55.601,38.367h-111.2C116.338,207.57,138.034,191.605,163.398,191.605z"/>
					</g>
				</g>
				<g>
					
						<linearGradient id="SVGID_1_" gradientUnits="userSpaceOnUse" x1="-10.4902" y1="376.9214" x2="118.8617" y2="219.3471" gradientTransform="matrix(1 0 0 -1 242.3398 559.5166)">
						<stop  offset="0" style="stop-color:#E11383"/>
						<stop  offset="0.3434" style="stop-color:#C620AA"/>
						<stop  offset="1" style="stop-color:#8C3BFF"/>
					</linearGradient>
					<circle fill="url(#SVGID_1_)" cx="316.395" cy="285.588" r="28.746"/>
					
						<linearGradient id="SVGID_2_" gradientUnits="userSpaceOnUse" x1="43.8555" y1="421.5308" x2="173.2026" y2="263.9623" gradientTransform="matrix(1 0 0 -1 242.3398 559.5166)">
						<stop  offset="0" style="stop-color:#E11383"/>
						<stop  offset="0.3434" style="stop-color:#C620AA"/>
						<stop  offset="1" style="stop-color:#8C3BFF"/>
					</linearGradient>
					<polygon fill="url(#SVGID_2_)" points="378.48,174.904 346.261,147.591 316.505,182.694 286.529,147.329 254.307,174.641 
						316.504,248.018 					"/>
				</g>
			</g>
		</g>
	</g>
	<g id="Layer_5" display="none">
		<g display="inline">
			<path fill="#382A4F" d="M184.048,23.674c2.703,2.159,4.359,5.015,4.963,8.565h-2.844c-0.484-2.905-1.857-5.206-4.117-6.9
				c-2.26-1.694-5.045-2.542-8.352-2.542c-2.383,0-4.561,0.525-6.539,1.574c-1.977,1.05-3.57,2.664-4.781,4.843
				c-1.211,2.179-1.816,4.863-1.816,8.05c0,3.188,0.605,5.872,1.816,8.051s2.805,3.793,4.781,4.842
				c1.979,1.05,4.156,1.574,6.539,1.574c3.307,0,6.092-0.847,8.352-2.542c2.26-1.695,3.633-3.995,4.117-6.901h2.844
				c-0.604,3.592-2.26,6.467-4.963,8.626c-2.703,2.159-6.135,3.238-10.289,3.238c-3.109,0-5.863-0.675-8.264-2.028
				c-2.4-1.352-4.287-3.299-5.658-5.841c-1.373-2.542-2.059-5.548-2.059-9.019c0-3.429,0.686-6.416,2.059-8.958
				c1.371-2.542,3.258-4.489,5.658-5.841c2.4-1.352,5.154-2.027,8.264-2.027C177.913,20.436,181.345,21.516,184.048,23.674z"/>
			<path fill="#382A4F" d="M204.446,22.221c2.139-1.352,4.863-2.028,8.172-2.028v2.966h-0.908c-3.309,0-6.094,0.929-8.354,2.784
				c-2.26,1.857-3.389,4.863-3.389,9.019v18.765h-2.725V20.859h2.725v7.264C200.815,25.541,202.308,23.573,204.446,22.221z"/>
			<path fill="#382A4F" d="M218.337,9.328c0.424-0.424,0.979-0.636,1.664-0.636s1.252,0.212,1.695,0.636
				c0.443,0.423,0.666,0.959,0.666,1.604c0,0.687-0.223,1.241-0.666,1.665c-0.443,0.424-1.01,0.636-1.695,0.636
				s-1.24-0.212-1.664-0.636c-0.424-0.424-0.635-0.978-0.635-1.665C217.702,10.287,217.913,9.751,218.337,9.328z M221.394,20.859
				v32.868h-2.723V20.859H221.394z"/>
			<path fill="#382A4F" d="M254.382,23.25c2.461,1.876,4.137,4.349,5.025,7.415v-9.806h2.723v32.868h-2.723v-9.806
				c-0.889,3.067-2.564,5.539-5.025,7.415s-5.488,2.815-9.078,2.815c-3.068,0-5.781-0.675-8.143-2.028
				c-2.359-1.352-4.207-3.309-5.537-5.872c-1.332-2.562-1.998-5.558-1.998-8.989c0-3.429,0.666-6.416,1.998-8.958
				c1.33-2.542,3.178-4.489,5.537-5.841c2.361-1.352,5.074-2.027,8.143-2.027C248.894,20.436,251.921,21.374,254.382,23.25z
				 M236.071,26.73c-2.441,2.583-3.662,6.094-3.662,10.532c0,4.479,1.211,8.011,3.633,10.593c2.422,2.583,5.709,3.874,9.867,3.874
				c2.582,0,4.902-0.595,6.961-1.786c2.057-1.19,3.662-2.885,4.811-5.084c1.15-2.199,1.727-4.731,1.727-7.597
				c0-2.865-0.576-5.387-1.727-7.566c-1.148-2.179-2.754-3.863-4.811-5.054c-2.059-1.19-4.379-1.786-6.961-1.786
				C241.792,22.856,238.513,24.148,236.071,26.73z"/>
			<path fill="#382A4F" d="M295.058,23.25c2.461,1.876,4.137,4.349,5.025,7.415V8.935h2.723v44.792h-2.723v-9.806
				c-0.889,3.067-2.564,5.539-5.025,7.415s-5.488,2.815-9.078,2.815c-3.068,0-5.781-0.675-8.143-2.028
				c-2.359-1.352-4.207-3.309-5.537-5.872c-1.332-2.562-1.998-5.558-1.998-8.989c0-3.429,0.666-6.416,1.998-8.958
				c1.33-2.542,3.178-4.489,5.537-5.841c2.361-1.352,5.074-2.027,8.143-2.027C289.569,20.436,292.597,21.374,295.058,23.25z
				 M276.747,26.73c-2.441,2.583-3.662,6.094-3.662,10.532c0,4.479,1.211,8.011,3.633,10.593c2.422,2.583,5.709,3.874,9.867,3.874
				c2.582,0,4.902-0.595,6.961-1.786c2.057-1.19,3.662-2.885,4.812-5.084c1.149-2.199,1.727-4.731,1.727-7.597
				c0-2.865-0.576-5.387-1.727-7.566c-1.148-2.179-2.754-3.863-4.812-5.054c-2.059-1.19-4.379-1.786-6.961-1.786
				C282.468,22.856,279.188,24.148,276.747,26.73z"/>
			<path fill="#382A4F" d="M335.554,22.463c2.461,1.353,4.39,3.299,5.781,5.841c1.391,2.542,2.088,5.529,2.088,8.958
				c0,3.471-0.697,6.477-2.088,9.019c-1.393,2.542-3.32,4.49-5.781,5.841c-2.463,1.353-5.246,2.028-8.354,2.028
				c-3.066,0-5.832-0.675-8.293-2.028c-2.461-1.352-4.398-3.309-5.812-5.872c-1.412-2.562-2.119-5.558-2.119-8.989
				c0-3.429,0.707-6.416,2.119-8.958s3.351-4.489,5.812-5.841s5.227-2.027,8.293-2.027
				C330.308,20.436,333.091,21.111,335.554,22.463z M320.571,24.43c-2.037,1.05-3.683,2.654-4.933,4.813
				c-1.252,2.159-1.877,4.833-1.877,8.02c0,3.188,0.625,5.872,1.877,8.051c1.25,2.179,2.896,3.793,4.933,4.842
				c2.039,1.05,4.248,1.574,6.629,1.574s4.59-0.524,6.629-1.574c2.037-1.049,3.682-2.664,4.932-4.842
				c1.252-2.179,1.877-4.862,1.877-8.051c0-3.187-0.614-5.861-1.846-8.02c-1.231-2.159-2.865-3.763-4.902-4.813
				c-2.039-1.049-4.268-1.574-6.688-1.574C324.819,22.856,322.61,23.381,320.571,24.43z"/>
			<path fill="#382A4F" d="M393.208,22.463c2.361,1.353,4.207,3.299,5.539,5.841s1.998,5.529,1.998,8.958
				c0,3.431-0.666,6.427-1.998,8.989c-1.332,2.563-3.178,4.52-5.539,5.872c-2.361,1.353-5.074,2.028-8.141,2.028
				c-3.554,0-6.568-0.938-9.052-2.815c-2.479-1.876-4.166-4.348-5.053-7.415v25.302H368.3V20.859h2.664v9.806
				c0.887-3.066,2.572-5.539,5.053-7.415c2.482-1.876,5.498-2.814,9.052-2.814C388.134,20.436,390.847,21.111,393.208,22.463z
				 M377.563,24.642c-2.06,1.191-3.675,2.875-4.845,5.054c-1.17,2.179-1.754,4.702-1.754,7.566c0,2.866,0.584,5.397,1.754,7.597
				c1.17,2.2,2.785,3.895,4.845,5.084c2.057,1.191,4.377,1.786,6.961,1.786c4.114,0,7.395-1.291,9.836-3.874
				c2.44-2.582,3.662-6.113,3.662-10.593c0-4.438-1.222-7.949-3.662-10.532c-2.441-2.582-5.722-3.874-9.836-3.874
				C381.938,22.856,379.618,23.452,377.563,24.642z"/>
			<path fill="#382A4F" d="M431.979,22.463c2.461,1.353,4.389,3.299,5.78,5.841s2.088,5.529,2.088,8.958
				c0,3.471-0.696,6.477-2.088,9.019c-1.393,2.542-3.319,4.49-5.78,5.841c-2.464,1.353-5.246,2.028-8.354,2.028
				c-3.066,0-5.832-0.675-8.293-2.028c-2.461-1.352-4.398-3.309-5.812-5.872c-1.411-2.562-2.118-5.558-2.118-8.989
				c0-3.429,0.707-6.416,2.118-8.958c1.412-2.542,3.351-4.489,5.812-5.841s5.227-2.027,8.293-2.027
				C426.73,20.436,429.515,21.111,431.979,22.463z M416.995,24.43c-2.037,1.05-3.683,2.654-4.933,4.813
				c-1.252,2.159-1.877,4.833-1.877,8.02c0,3.188,0.625,5.872,1.877,8.051c1.25,2.179,2.896,3.793,4.933,4.842
				c2.039,1.05,4.248,1.574,6.629,1.574s4.59-0.524,6.629-1.574c2.037-1.049,3.682-2.664,4.932-4.842
				c1.253-2.179,1.878-4.862,1.878-8.051c0-3.187-0.615-5.861-1.847-8.02c-1.231-2.159-2.865-3.763-4.901-4.813
				c-2.039-1.049-4.269-1.574-6.689-1.574C421.243,22.856,419.034,23.381,416.995,24.43z"/>
			<path fill="#382A4F" d="M455.282,22.221c2.137-1.352,4.86-2.028,8.17-2.028v2.966h-0.906c-3.311,0-6.094,0.929-8.354,2.784
				c-2.263,1.857-3.392,4.863-3.392,9.019v18.765h-2.723V20.859h2.723v7.264C451.649,25.541,453.142,23.573,455.282,22.221z"/>
		</g>
	</g>
	<g id="Layer_15">
		<g>
			<path fill="#382A4F" d="M89.432,68.828c2.839,2.305,4.587,5.391,5.245,9.257h-5.924c-0.412-2.427-1.533-4.329-3.363-5.708
				c-1.831-1.378-4.104-2.066-6.819-2.066c-1.975,0-3.774,0.453-5.399,1.357c-1.626,0.905-2.932,2.295-3.919,4.166
				c-0.987,1.873-1.48,4.188-1.48,6.942c0,2.757,0.493,5.071,1.48,6.942c0.987,1.873,2.293,3.26,3.919,4.166
				c1.625,0.904,3.425,1.356,5.399,1.356c2.716,0,4.988-0.699,6.819-2.099c1.83-1.397,2.951-3.311,3.363-5.738h5.924
				c-0.658,3.909-2.406,7.004-5.245,9.287c-2.839,2.283-6.418,3.425-10.737,3.425c-3.251,0-6.131-0.699-8.64-2.099
				c-2.51-1.397-4.475-3.403-5.894-6.017c-1.419-2.612-2.129-5.687-2.129-9.226c0-3.538,0.71-6.624,2.129-9.258
				c1.419-2.631,3.384-4.647,5.894-6.047c2.509-1.397,5.389-2.099,8.64-2.099C83.014,65.372,86.593,66.525,89.432,68.828z"/>
			<path fill="#382A4F" d="M112.511,67.193c2.139-1.296,4.689-1.944,7.651-1.944v6.109h-1.728c-3.168,0-5.76,0.813-7.775,2.438
				c-2.017,1.625-3.024,4.31-3.024,8.053v17.834h-5.615V65.804h5.615v6.85C108.747,70.308,110.372,68.489,112.511,67.193z"/>
			<path fill="#382A4F" d="M125.778,53.37c0.699-0.637,1.625-0.957,2.777-0.957c1.151,0,2.077,0.319,2.776,0.957
				c0.699,0.638,1.05,1.472,1.05,2.499c0,1.029-0.351,1.862-1.05,2.5c-0.699,0.639-1.625,0.957-2.776,0.957
				c-1.152,0-2.078-0.318-2.777-0.957c-0.7-0.637-1.049-1.471-1.049-2.5C124.729,54.841,125.078,54.007,125.778,53.37z
				 M131.333,65.804v33.879h-5.615V65.804H131.333z"/>
			<path fill="#382A4F" d="M162.59,67.841c2.283,1.646,3.877,3.847,4.782,6.603v-8.64h5.616v33.879h-5.616v-8.641
				c-0.905,2.758-2.499,4.958-4.782,6.604s-5.071,2.469-8.362,2.469c-3.003,0-5.677-0.699-8.022-2.098
				c-2.345-1.398-4.187-3.404-5.522-6.018c-1.338-2.611-2.006-5.687-2.006-9.226c0-3.538,0.668-6.624,2.006-9.257
				c1.336-2.633,3.178-4.648,5.522-6.047c2.346-1.398,5.021-2.1,8.022-2.1C157.519,65.372,160.306,66.196,162.59,67.841z
				 M147.532,73.673c-2.078,2.2-3.116,5.235-3.116,9.103c0,3.868,1.038,6.901,3.116,9.102c2.077,2.202,4.844,3.302,8.3,3.302
				c2.222,0,4.206-0.514,5.955-1.543c1.748-1.027,3.116-2.478,4.104-4.351c0.987-1.872,1.48-4.042,1.48-6.51
				c0-2.47-0.493-4.647-1.48-6.542c-0.988-1.893-2.356-3.342-4.104-4.352c-1.749-1.008-3.733-1.512-5.955-1.512
				C152.376,70.371,149.609,71.472,147.532,73.673z"/>
			<path fill="#382A4F" d="M204.183,67.841c2.282,1.646,3.877,3.847,4.782,6.603V54.017h5.615v45.666h-5.615v-8.64
				c-0.905,2.757-2.5,4.958-4.782,6.604c-2.283,1.646-5.071,2.469-8.362,2.469c-3.003,0-5.677-0.699-8.022-2.099
				c-2.345-1.397-4.187-3.403-5.522-6.017c-1.338-2.612-2.006-5.687-2.006-9.226c0-3.538,0.668-6.624,2.006-9.258
				c1.336-2.631,3.178-4.647,5.522-6.047c2.346-1.397,5.02-2.099,8.022-2.099C199.111,65.372,201.899,66.196,204.183,67.841z
				 M189.125,73.673c-2.078,2.2-3.116,5.235-3.116,9.103c0,3.868,1.038,6.901,3.116,9.102c2.077,2.202,4.844,3.302,8.3,3.302
				c2.222,0,4.206-0.514,5.955-1.543c1.748-1.027,3.116-2.478,4.104-4.351c0.987-1.872,1.479-4.042,1.479-6.51
				c0-2.47-0.492-4.647-1.479-6.542c-0.988-1.893-2.356-3.342-4.104-4.352c-1.749-1.008-3.732-1.512-5.955-1.512
				C193.968,70.371,191.202,71.472,189.125,73.673z"/>
			<path fill="#382A4F" d="M247.626,67.47c2.571,1.399,4.587,3.416,6.048,6.047c1.461,2.634,2.191,5.72,2.191,9.258
				c0,3.539-0.73,6.613-2.191,9.226c-1.461,2.613-3.477,4.619-6.048,6.017c-2.57,1.399-5.481,2.099-8.73,2.099
				c-3.251,0-6.162-0.699-8.732-2.099c-2.571-1.397-4.598-3.403-6.078-6.017c-1.48-2.612-2.222-5.687-2.222-9.226
				c0-3.538,0.74-6.624,2.222-9.258c1.48-2.631,3.507-4.647,6.078-6.047c2.57-1.397,5.481-2.099,8.732-2.099
				C242.144,65.372,245.055,66.073,247.626,67.47z M233.31,71.667c-1.708,0.905-3.086,2.294-4.136,4.166
				c-1.049,1.873-1.572,4.187-1.572,6.942c0,2.715,0.523,5.009,1.572,6.881c1.05,1.873,2.428,3.261,4.136,4.166
				c1.707,0.904,3.567,1.357,5.585,1.357c2.015,0,3.877-0.453,5.585-1.357c1.706-0.905,3.085-2.293,4.135-4.166
				c1.049-1.872,1.573-4.166,1.573-6.881c0-2.756-0.524-5.07-1.573-6.942c-1.05-1.872-2.429-3.26-4.135-4.166
				c-1.708-0.905-3.57-1.358-5.585-1.358C236.878,70.308,235.017,70.761,233.31,71.667z"/>
			<path fill="#382A4F" d="M305.171,67.47c2.346,1.399,4.187,3.416,5.523,6.047c1.336,2.634,2.006,5.72,2.006,9.258
				c0,3.539-0.67,6.613-2.006,9.226c-1.338,2.613-3.179,4.619-5.523,6.017c-2.345,1.399-5.02,2.099-8.021,2.099
				c-3.292,0-6.078-0.833-8.361-2.5c-2.282-1.666-3.856-3.856-4.722-6.572v24.685h-5.615V65.804h5.615v8.64
				c0.864-2.716,2.438-4.906,4.722-6.572s5.069-2.5,8.361-2.5C300.151,65.372,302.826,66.073,305.171,67.47z M289.62,71.882
				c-1.77,1.01-3.146,2.459-4.135,4.352c-0.987,1.893-1.481,4.072-1.481,6.542c0,2.468,0.494,4.639,1.481,6.51
				c0.987,1.873,2.365,3.323,4.135,4.351c1.77,1.029,3.743,1.543,5.924,1.543c3.496,0,6.284-1.1,8.362-3.302
				c2.077-2.2,3.116-5.233,3.116-9.102c0-3.867-1.039-6.901-3.116-9.103c-2.078-2.201-4.866-3.302-8.362-3.302
				C293.363,70.371,291.389,70.875,289.62,71.882z"/>
			<path fill="#382A4F" d="M344.141,67.47c2.57,1.399,4.586,3.416,6.047,6.047c1.461,2.634,2.191,5.72,2.191,9.258
				c0,3.539-0.73,6.613-2.191,9.226c-1.461,2.613-3.477,4.619-6.047,6.017c-2.572,1.399-5.482,2.099-8.732,2.099
				s-6.162-0.699-8.73-2.099c-2.572-1.397-4.6-3.403-6.078-6.017c-1.482-2.612-2.223-5.687-2.223-9.226
				c0-3.538,0.74-6.624,2.223-9.258c1.479-2.631,3.506-4.647,6.078-6.047c2.568-1.397,5.48-2.099,8.73-2.099
				S341.568,66.073,344.141,67.47z M329.824,71.667c-1.709,0.905-3.086,2.294-4.135,4.166c-1.049,1.873-1.574,4.187-1.574,6.942
				c0,2.715,0.525,5.009,1.574,6.881c1.049,1.873,2.426,3.261,4.135,4.166c1.707,0.904,3.568,1.357,5.584,1.357
				s3.877-0.453,5.586-1.357c1.705-0.905,3.084-2.293,4.135-4.166c1.049-1.872,1.572-4.166,1.572-6.881
				c0-2.756-0.523-5.07-1.572-6.942c-1.051-1.872-2.43-3.26-4.135-4.166c-1.709-0.905-3.57-1.358-5.586-1.358
				S331.531,70.761,329.824,71.667z"/>
			<path fill="#382A4F" d="M370.215,67.193c2.139-1.296,4.688-1.944,7.65-1.944v6.109h-1.729c-3.168,0-5.76,0.813-7.775,2.438
				s-3.023,4.31-3.023,8.053v17.834h-5.615V65.804h5.615v6.85C366.449,70.308,368.074,68.489,370.215,67.193z"/>
		</g>
	</g>
	<g id="Layer_10" display="none">
		
			<linearGradient id="SVGID_3_" gradientUnits="userSpaceOnUse" x1="-475.8892" y1="711.8989" x2="-325.5645" y2="711.8989" gradientTransform="matrix(1 0 0 -1 242.3398 559.5166)">
			<stop  offset="0" style="stop-color:#E11383"/>
			<stop  offset="0.3434" style="stop-color:#C620AA"/>
			<stop  offset="1" style="stop-color:#8C3BFF"/>
		</linearGradient>
		<path display="inline" fill="url(#SVGID_3_)" d="M-141.608-214.527c-16.38-12.704-61.42-6.159-71.632,13.914
			c-14.944,29.374-3.387,31.046-15.46,51.534c-13.875,23.545,1.013,61.651,57.816,65.002c52.987,3.127,85.445-14.813,87.508-51.088
			C-81.548-167.334-95.986-179.142-141.608-214.527z"/>
	</g>
</g>
</svg>
