<?xml version="1.0" encoding="utf-8"?>
<!-- Generator: Adobe Illustrator 16.0.3, SVG Export Plug-In . SVG Version: 6.00 Build 0)  -->
<!DOCTYPE svg PUBLIC "-//W3C//DTD SVG 1.1//EN" "http://www.w3.org/Graphics/SVG/1.1/DTD/svg11.dtd">
<svg version="1.1" xmlns="http://www.w3.org/2000/svg" xmlns:xlink="http://www.w3.org/1999/xlink" x="0px" y="0px"
	 width="130.479px" height="130.479px" viewBox="0 0 130.479 130.479" enable-background="new 0 0 130.479 130.479"
	 xml:space="preserve">
<g id="Layer_3" display="none">
	<path display="inline" fill="#FFFFFF" d="M165.317,153.316c0,6.628-5.373,12-12,12H-22.684c-6.627,0-12-5.372-12-12v-176
		c0-6.628,5.373-12,12-12h176.001c6.627,0,12,5.372,12,12V153.316z"/>
</g>
<g id="Layer_1" display="none">
	<g display="inline">
		<path fill="#373435" d="M125.745-0.126h-10.82H15.712H4.887c-3.342,0-6.049,2.701-6.064,6.038v107.955l-0.003,10.836
			c0.005,3.343,2.72,6.055,6.067,6.055h25.925V12.167h90v118.59h4.932c3.352,0,6.068-2.716,6.068-6.067V5.94
			C131.813,2.59,129.096-0.126,125.745-0.126z"/>
		<path fill="#FFFFFF" d="M108.943,78.21V60.106H91.469V45.198c0-4.4,5.878-7.98,10.286-7.98h8.946V20.747H91.308
			c-8.619,0-19.303,7.916-19.303,19.698v19.661H54.681V78.21h17.325v52.547h19.464V78.21H108.943z"/>
		<path fill="#FFFFFF" d="M30.813,12.167v118.59h41.193V78.21H54.681V60.106h17.325V40.445c0-11.782,10.684-19.698,19.303-19.698
			h19.394v16.471h-8.946c-4.408,0-10.286,3.58-10.286,7.98v14.908h17.474V78.21H91.469v52.547h23.455h5.889V12.167H30.813z"/>
	</g>
</g>
<g id="Layer_7" display="none">
	<path display="inline" fill="#BA1E24" d="M94.373,68.22V46.833H73.728V29.22c0-5.199,6.945-9.427,12.153-9.427h10.567V0.333h-22.91
		c-10.184,0-22.805,9.352-22.805,23.271v23.228H30.266V68.22h20.468v62.08h22.995V68.22H94.373z"/>
</g>
<g id="Layer_4">
	<g>
		<path fill="#BA1E24" d="M92.831,0.145H37.804c-20.751,0-37.571,16.821-37.571,37.572v55.026c0,20.75,16.82,37.57,37.571,37.57
			h55.027c20.748,0,37.57-16.82,37.57-37.57V37.717C130.401,16.966,113.579,0.145,92.831,0.145 M118.415,93.71
			c0,13.774-11.167,24.941-24.941,24.941H37.159c-13.773,0-24.939-11.167-24.939-24.941V37.396
			c0-13.774,11.166-24.941,24.939-24.941h56.314c13.774,0,24.941,11.167,24.941,24.941V93.71z"/>
		<path fill="#BA1E24" d="M65.316,31.779c-18.652,0-33.774,15.121-33.774,33.774s15.122,33.773,33.774,33.773
			c18.654,0,33.774-15.12,33.774-33.773S83.97,31.779,65.316,31.779 M65.316,87.446c-12.091,0-21.893-9.803-21.893-21.894
			c0-12.092,9.801-21.894,21.893-21.894c12.092,0,21.895,9.802,21.895,21.894C87.21,77.644,77.408,87.446,65.316,87.446"/>
		<path fill="#BA1E24" d="M100.217,22.625c-4.346,0-7.868,3.523-7.868,7.869s3.522,7.869,7.868,7.869s7.868-3.523,7.868-7.869
			S104.563,22.625,100.217,22.625"/>
	</g>
</g>
<g id="Layer_5" display="none">
	<g display="inline">
		<path fill="#373435" d="M39.909,120.973c51.687,0,79.952-42.82,79.952-79.952c0-1.218-0.025-2.429-0.081-3.633
			c5.486-3.967,10.256-8.916,14.019-14.55c-5.035,2.237-10.453,3.744-16.137,4.424c5.801-3.479,10.255-8.982,12.356-15.544
			c-5.431,3.219-11.443,5.56-17.844,6.821c-5.127-5.462-12.431-8.878-20.512-8.878c-15.519,0-28.104,12.584-28.104,28.099
			c0,2.205,0.247,4.35,0.73,6.407c-23.354-1.175-44.064-12.357-57.922-29.36c-2.415,4.153-3.806,8.978-3.806,14.125
			c0,9.749,4.962,18.355,12.504,23.39c-4.607-0.143-8.938-1.409-12.726-3.516c-0.006,0.117-0.006,0.236-0.006,0.358
			c0,13.611,9.687,24.972,22.544,27.549c-2.36,0.642-4.844,0.988-7.408,0.988c-1.81,0-3.571-0.18-5.282-0.508
			c3.576,11.165,13.949,19.288,26.252,19.519c-9.621,7.535-21.735,12.027-34.901,12.027c-2.268,0-4.504-0.13-6.703-0.388
			C9.271,116.32,24.037,120.973,39.909,120.973"/>
	</g>
</g>
<g id="Layer_6" display="none">
	<g display="inline">
		<g>
			<defs>
				<path id="SVGID_1_" d="M29.763,13.643c-38.915,0-38.915,11.087-38.915,38.352v26.645c0,25.929,5.512,38.351,38.915,38.351
					h71.105c30.172,0,38.917-7.26,38.917-38.351V51.994c0-28.698-1.471-38.352-38.917-38.352H29.763z"/>
			</defs>
			<use xlink:href="#SVGID_1_"  overflow="visible" fill="#FFFFFF"/>
			<clipPath id="SVGID_2_">
				<use xlink:href="#SVGID_1_"  overflow="visible"/>
			</clipPath>
			<rect x="-9.152" y="13.643" clip-path="url(#SVGID_2_)" fill="#373435" width="148.938" height="103.347"/>
		</g>
		<g>
			<polygon fill="#FFFFFF" points="50.1,43.742 90.247,64.588 50.1,85.568 			"/>
		</g>
	</g>
</g>
<g id="Layer_2" display="none">
	<g display="inline">
		<linearGradient id="SVGID_3_" gradientUnits="userSpaceOnUse" x1="63.6494" y1="80.5947" x2="63.6494" y2="142.5869">
			<stop  offset="0" style="stop-color:#4D69A2"/>
			<stop  offset="1" style="stop-color:#3C5A99"/>
		</linearGradient>
		<path fill="url(#SVGID_3_)" d="M94.963,139.055c0,1.578-1.279,2.857-2.857,2.857H75.903l0.063,0.357h-9.707l-0.043-0.357H35.193
			c-1.578,0-2.857-1.279-2.857-2.857v-55.92c0-1.578,1.279-2.857,2.857-2.857h56.913c1.578,0,2.857,1.279,2.857,2.857V139.055z"/>
		<g>
			<path fill="#FFFFFF" d="M94.963,139.055v-55.92c0-1.578-1.279-2.857-2.857-2.857H87.01h-46.72h-5.098
				c-1.574,0-2.847,1.273-2.855,2.844v50.838l-0.001,5.102c0.002,1.574,1.281,2.852,2.857,2.852h31.606v-24.744h-8.158v-8.525h8.158
				v-9.26c0-5.547,5.031-9.275,9.09-9.275h9.133v7.758h-4.213c-2.076,0-4.844,1.684-4.844,3.758v7.02h8.229v8.525h-8.229v24.744
				H87.01h5.096C93.684,141.912,94.963,140.633,94.963,139.055z"/>
			<path fill="#3D568E" d="M92.106,142.27H75.608v-25.459h8.229V109h-8.229v-7.377c0-2.217,2.859-4.115,5.201-4.115h3.855v-7.043
				h-8.775c-3.648,0-8.732,3.393-8.732,8.918V109h-8.159v7.811h8.159v25.459H35.193c-1.769,0-3.211-1.439-3.214-3.209l0.001-55.939
				c0.009-1.766,1.451-3.199,3.213-3.199h56.913c1.771,0,3.215,1.441,3.215,3.213v55.92C95.321,140.826,93.877,142.27,92.106,142.27
				z M76.323,141.555h15.783c1.379,0,2.5-1.121,2.5-2.5v-55.92c0-1.377-1.121-2.5-2.5-2.5H35.193c-1.371,0-2.492,1.117-2.499,2.488
				l-0.001,55.938c0.002,1.375,1.124,2.494,2.5,2.494h31.249v-24.029h-8.158v-9.24h8.158v-8.902c0-5.512,4.988-9.633,9.447-9.633
				h9.49v8.471h-4.57c-1.979,0-4.486,1.602-4.486,3.402v6.662h8.227v9.24h-8.227V141.555z"/>
		</g>
	</g>
</g>
</svg>
