<?xml version="1.0" encoding="utf-8"?>
<!-- Generator: Adobe Illustrator 19.0.0, SVG Export Plug-In . SVG Version: 6.00 Build 0)  -->
<svg version="1.1" id="Camada_1" xmlns="http://www.w3.org/2000/svg" xmlns:xlink="http://www.w3.org/1999/xlink" x="0px" y="0px"
	 viewBox="-205 168 200 60" style="enable-background:new -205 168 200 60;" xml:space="preserve">
<style type="text/css">
	.st0{fill:none;stroke:#FFFFFF;stroke-miterlimit:10;}
	.st1{fill:none;}
	.st2{fill:#0E132A;}
	.st3{fill:#253D7F;}
</style>
<path class="st0" d="M-190.2,197.9"/>
<rect x="-144.4" y="174.2" class="st1" width="58.8" height="8.8"/>
<g>
	<path class="st2" d="M-139,213.1h-3.8c-0.6,0-0.9-0.3-0.9-1v-27.1c0-0.6,0.3-0.9,0.9-0.9h3.8c0.6,0,0.9,0.3,0.9,0.9v12.8h0.1
		c0.2-0.7,0.7-1.6,1.4-2.8l6.8-10c0.4-0.6,1-0.9,1.7-0.9h4.4c0.3,0,0.5,0.1,0.6,0.3c0.1,0.2,0,0.4-0.3,0.7l-8.5,11.8l9.5,15
		c0.2,0.4,0.3,0.6,0.1,0.8c-0.1,0.2-0.4,0.3-0.8,0.3h-3.3c-1,0-1.7-0.3-2.1-0.9l-6.8-11l-2.8,3.3v7.7
		C-138,212.8-138.3,213.1-139,213.1z"/>
	<path class="st2" d="M-108.2,213.1h-3.8c-0.6,0-0.9-0.3-0.9-1v-9.6l-8.2-17.4c-0.1-0.3-0.1-0.5,0-0.7c0.1-0.2,0.3-0.3,0.6-0.3h4.7
		c0.5,0,0.8,0.3,1.1,0.9l4.5,10.9h0.3l4.4-10.9c0.2-0.6,0.6-0.9,1.1-0.9h4.7c0.3,0,0.5,0.1,0.7,0.3c0.1,0.2,0.1,0.4,0,0.7l-8.2,17.4
		v9.6C-107.3,212.8-107.6,213.1-108.2,213.1z"/>
	<path class="st2" d="M-90.9,213.1h-3.8c-0.6,0-0.9-0.3-0.9-1v-27.1c0-0.6,0.3-0.9,0.9-0.9h10.6c2.3,0,4.1,0.6,5.4,1.9
		c1.3,1.3,2,3.1,2,5.4v3.5c0,3.4-1.3,5.6-4,6.8v0.2l4.8,10c0.3,0.7,0,1.1-0.8,1.1h-3.6c-0.5,0-0.9-0.1-1.2-0.2
		c-0.2-0.1-0.4-0.4-0.6-0.8l-4.5-9.7h-3c-0.4,0-0.5,0.2-0.5,0.5v9.2C-90,212.8-90.3,213.1-90.9,213.1z M-89.5,197.9h4.4
		c0.9,0,1.7-0.2,2.1-0.6s0.7-1.1,0.7-2v-3.5c0-0.9-0.2-1.6-0.7-2s-1.2-0.6-2.1-0.6h-4.4c-0.3,0-0.5,0.2-0.5,0.5v7.8
		C-90,197.7-89.8,197.9-89.5,197.9z"/>
	<path class="st2" d="M-68.2,213.1h-4.3c-0.5,0-0.7-0.3-0.5-1l7.1-27.1c0.2-0.6,0.7-0.9,1.3-0.9h5.9c0.7,0,1.2,0.3,1.3,0.9l7.1,27.1
		c0.2,0.6,0,1-0.5,1h-4.3c-0.3,0-0.6-0.1-0.7-0.2c-0.1-0.1-0.2-0.4-0.3-0.7l-1.3-5H-66l-1.3,5c-0.1,0.4-0.2,0.6-0.3,0.7
		C-67.7,213.1-67.9,213.1-68.2,213.1z M-61.7,189.6l-3.2,13h6.6l-3.2-13C-61.5,189.6-61.7,189.6-61.7,189.6z"/>
	<path class="st2" d="M-30.6,213.1h-14.7c-0.6,0-0.9-0.3-0.9-1v-27.1c0-0.6,0.3-0.9,0.9-0.9h3.8c0.6,0,0.9,0.3,0.9,0.9v22.5
		c0,0.3,0.2,0.5,0.5,0.5h9.4c0.6,0,0.9,0.3,0.9,1v3.1C-29.8,212.8-30.1,213.1-30.6,213.1z"/>
	<path class="st2" d="M-17.4,213.1h-3.8c-0.6,0-0.9-0.3-0.9-1v-9.6l-8.2-17.4c-0.1-0.3-0.1-0.5,0-0.7c0.1-0.2,0.3-0.3,0.6-0.3h4.7
		c0.5,0,0.8,0.3,1.1,0.9l4.5,10.9h0.3l4.4-10.9c0.2-0.6,0.6-0.9,1.1-0.9h4.7c0.3,0,0.5,0.1,0.6,0.3c0.1,0.2,0.1,0.4,0,0.7l-8.2,17.4
		v9.6C-16.5,212.8-16.8,213.1-17.4,213.1z"/>
</g>
<path class="st0" d="M-193.1,213.8"/>
<path class="st0" d="M-204.6,202.8"/>
<g>
	<path class="st3" d="M-93.5,216.5l1.5,4.3l1.5-4.3h1.6v5.9h-1.2v-1.6l0.1-2.8l-1.6,4.4h-0.8L-94,218l0.1,2.8v1.6h-1.2v-5.9H-93.5z"
		/>
	<path class="st3" d="M-84.4,221.2h-2.1l-0.4,1.2h-1.3l2.2-5.9h1.1l2.2,5.9H-84L-84.4,221.2z M-86.2,220.2h1.5l-0.7-2.2L-86.2,220.2
		z"/>
	<path class="st3" d="M-80,220.2h-1v2.2h-1.2v-5.9h2.2c0.7,0,1.2,0.2,1.6,0.5s0.6,0.8,0.6,1.3c0,0.4-0.1,0.7-0.3,1
		c-0.2,0.3-0.4,0.5-0.8,0.6l1.3,2.4v0.1h-1.3L-80,220.2z M-80.9,219.3h1c0.3,0,0.5-0.1,0.7-0.2c0.2-0.2,0.3-0.4,0.3-0.6
		c0-0.3-0.1-0.5-0.2-0.7c-0.2-0.2-0.4-0.2-0.7-0.2h-1L-80.9,219.3L-80.9,219.3z"/>
	<path class="st3" d="M-75,220l-0.6,0.7v1.7h-1.2v-5.9h1.2v2.7l0.5-0.7l1.5-1.9h1.5l-2.1,2.6l2.1,3.3h-1.4L-75,220z"/>
	<path class="st3" d="M-68.1,219.9h-2.3v1.6h2.7v1h-3.9v-5.9h3.9v1h-2.7v1.4h2.3L-68.1,219.9L-68.1,219.9z"/>
	<path class="st3" d="M-62.4,217.5h-1.8v4.9h-1.2v-4.9h-1.8v-1h4.8V217.5z"/>
	<path class="st3" d="M-60.4,222.4h-1.2v-5.9h1.2V222.4z"/>
	<path class="st3" d="M-54.5,222.4h-1.2l-2.4-3.9v3.9h-1.2v-5.9h1.2l2.4,3.9v-3.9h1.2V222.4z"/>
	<path class="st3" d="M-48.8,221.7c-0.2,0.3-0.5,0.5-0.9,0.6s-0.8,0.2-1.3,0.2c-0.5,0-1-0.1-1.3-0.3c-0.4-0.2-0.7-0.6-0.9-1
		s-0.3-0.9-0.3-1.5v-0.4c0-0.6,0.1-1.1,0.3-1.5c0.2-0.4,0.5-0.8,0.9-1c0.4-0.2,0.8-0.3,1.3-0.3c0.7,0,1.3,0.2,1.6,0.5
		c0.4,0.3,0.6,0.8,0.7,1.5H-50c-0.1-0.3-0.2-0.6-0.4-0.7c-0.2-0.2-0.4-0.2-0.8-0.2c-0.4,0-0.7,0.2-0.9,0.5c-0.2,0.3-0.3,0.8-0.3,1.4
		v0.4c0,0.6,0.1,1.1,0.4,1.4c0.2,0.3,0.6,0.5,1,0.5c0.5,0,0.8-0.1,1-0.3v-1.1h-1.1v-0.9h2.3L-48.8,221.7L-48.8,221.7z"/>
	<path class="st3" d="M-45.7,222.4v-5.9h1.8c0.5,0,1,0.1,1.4,0.4c0.4,0.2,0.7,0.6,1,1c0.2,0.4,0.3,0.9,0.3,1.5v0.3
		c0,0.6-0.1,1-0.3,1.5c-0.2,0.4-0.5,0.8-0.9,1c-0.4,0.2-0.9,0.3-1.4,0.4H-45.7z M-44.5,217.5v3.9h0.6c0.5,0,0.8-0.2,1.1-0.5
		c0.3-0.3,0.4-0.8,0.4-1.3v-0.3c0-0.6-0.1-1.1-0.4-1.4s-0.6-0.5-1.1-0.5L-44.5,217.5L-44.5,217.5z"/>
	<path class="st3" d="M-39.1,222.4h-1.2v-5.9h1.2V222.4z"/>
	<path class="st3" d="M-33.3,221.7c-0.2,0.3-0.5,0.5-0.9,0.6s-0.8,0.2-1.3,0.2c-0.5,0-1-0.1-1.3-0.3s-0.7-0.6-0.9-1
		s-0.3-0.9-0.3-1.5v-0.4c0-0.6,0.1-1.1,0.3-1.5c0.2-0.4,0.5-0.8,0.9-1c0.4-0.2,0.8-0.3,1.3-0.3c0.7,0,1.3,0.2,1.6,0.5
		c0.4,0.3,0.6,0.8,0.7,1.5h-1.2c-0.1-0.3-0.2-0.6-0.4-0.7c-0.2-0.2-0.4-0.2-0.8-0.2c-0.4,0-0.7,0.2-0.9,0.5
		c-0.2,0.3-0.3,0.8-0.3,1.4v0.4c0,0.6,0.1,1.1,0.4,1.4c0.2,0.3,0.6,0.5,1,0.5c0.5,0,0.8-0.1,1-0.3v-1.1h-1.1v-0.9h2.3L-33.3,221.7
		L-33.3,221.7z"/>
	<path class="st3" d="M-31,222.4h-1.2v-5.9h1.2V222.4z"/>
	<path class="st3" d="M-25.5,217.5h-1.8v4.9h-1.2v-4.9h-1.8v-1h4.8V217.5z"/>
	<path class="st3" d="M-22,221.2h-2.1l-0.4,1.2h-1.3l2.2-5.9h1.1l2.2,5.9h-1.3L-22,221.2z M-23.8,220.2h1.5l-0.7-2.2L-23.8,220.2z"
		/>
	<path class="st3" d="M-18.5,221.4h2.6v1h-3.8v-5.9h1.2V221.4z"/>
</g>
<path class="st3" d="M-148,186.6c0-2.9-2.3-5.2-5.2-5.2s-5.2,2.3-5.2,5.2c0,0.8,0.2,1.5,0.5,2.2l-6.3,6l1.7,3l6.9-6.6l-2.6,17
	l-14-26c1.1-1,1.8-2.3,1.8-3.9c0-2.9-2.3-5.2-5.2-5.2s-5.2,2.3-5.2,5.2c0,1.6,0.7,3,1.8,3.9l-14,26l-2.6-17l7,6.6l1.6-3.1l-6.3-6
	c0.3-0.7,0.5-1.4,0.5-2.2c0-2.9-2.3-5.2-5.2-5.2c-2.9,0-5.2,2.3-5.2,5.2c0,2.5,1.8,4.7,4.3,5.1l3.4,21.9l3.1,0.5l7.1-13.2l8.5,8.1
	h2.3l8.5-8.1l7.1,13.2l3.1-0.5l3.4-21.9C-149.8,191.2-148,189.1-148,186.6z M-200.3,186.6c0-1.3,1.1-2.4,2.4-2.4
	c1.3,0,2.4,1.1,2.4,2.4s-1.1,2.4-2.4,2.4C-199.2,189-200.3,187.9-200.3,186.6z M-175.5,175.8c1.3,0,2.4,1.1,2.4,2.4
	c0,1.3-1.1,2.4-2.4,2.4c-1.3,0-2.4-1.1-2.4-2.4C-177.9,176.9-176.9,175.8-175.5,175.8z M-175.5,205.5l-8-7.7l7.8-14.5
	c0.1,0,0.2,0,0.3,0c0.1,0,0.2,0,0.3,0l7.8,14.5L-175.5,205.5z M-153.2,189c-1.3,0-2.4-1.1-2.4-2.4s1.1-2.4,2.4-2.4
	c1.3,0,2.4,1.1,2.4,2.4S-151.8,189-153.2,189z"/>
<g>
	<path d="M-142.9,174.1v-0.5h2.9v0.5h0.5v0.5h0.5v4.9h-0.5v0.5h-0.5v0.5h-2.9V180h-0.5v-0.5h-0.5v-4.9h0.5v-0.5H-142.9z
		 M-140.5,174.6h-2v0.5h-0.5v3.9h0.5v0.5h2V179h0.5v-3.9h-0.5V174.6z"/>
	<path d="M-134.6,179.5h0.5v1h-1V180h-0.5v-0.5h-0.5v-3.4h-1v-1h1v-1.5h1v1.5h1v1h-1v2.9h0.5V179.5z"/>
	<path d="M-128.8,179.5h0.5v1h-1V180h-0.5v-0.5h-0.5v-2.4h-1v-1h2v2.9h0.5V179.5z M-129.2,174.1v1h-1v-1H-129.2z"/>
	<path d="M-125.3,176.6v3.9h-1v-5.4h1v0.5h0.5v-0.5h2.4v0.5h0.5v0.5h0.5v4.4h-1v-3.9h-0.5v-0.5h-0.5v4.4h-1v-4.4h-0.5v0.5H-125.3z"
		/>
	<path d="M-117,179.5h0.5v1h-1V180h-0.5v-0.5h-0.5v-2.4h-1v-1h2v2.9h0.5V179.5z M-117.5,174.1v1h-1v-1H-117.5z"/>
	<path d="M-112.6,179.5h2.9v1h-4.9v-1h0.5V179h0.5v-0.5h0.5V178h0.5v-0.5h0.5v-0.5h0.5v-0.5h0.5v-0.5h-3.4v-1h4.9v1.5h-0.5v0.5h-0.5
		v0.5h-0.5v0.5h-0.5v0.5h-0.5v0.5h-0.5V179.5z"/>
	<path d="M-107.8,180.5V180h-0.5v-0.5h-0.5v-2h0.5v-0.5h0.5v-0.5h2.4v0.5h0.5v-1h-0.5v-0.5h-2.4v-1h2.9v0.5h0.5v0.5h0.5v4.9h-1V180
		h-0.5v0.5H-107.8z M-107.3,179.5h2V179h0.5v-1h-0.5v-0.5h-2v0.5h-0.5v1h0.5V179.5z"/>
	<path d="M-99,176.1v-2.4h1v6.8h-1v-1h-0.5v0.5h-0.5v0.5h-1.5V180h-0.5v-0.5h-0.5V179h-0.5v-2.4h0.5v-0.5h0.5v-0.5h0.5v-0.5h1.5v0.5
		h0.5v0.5H-99z M-101.4,179h0.5v0.5h0.5V179h0.5v-0.5h0.5v-1.5h-0.5v-0.5h-0.5v-0.5h-0.5v0.5h-0.5v0.5h-0.5v1.5h0.5V179z"/>
	<path d="M-96,180.5V180h-0.5v-0.5H-97v-3.4h0.5v-0.5h0.5v-0.5h2.9v0.5h0.5v0.5h0.5v3.4h-0.5v0.5h-0.5v0.5H-96z M-95.5,179.5h2V179
		h0.5v-2.4h-0.5v-0.5h-2v0.5H-96v2.4h0.5V179.5z"/>
	<path d="M-84.3,178.5v2h-1v-5.9h1v0.5h0.5v-0.5h2.4v0.5h0.5v0.5h0.5v2.4h-0.5v0.5h-0.5v0.5h-2.4v-0.5H-84.3z M-81.4,176.1h-0.5
		v-0.5h-1.5v0.5h-0.5v1.5h0.5v0.5h1.5v-0.5h0.5V176.1z"/>
	<path d="M-78.5,180.5V180h-0.5v-0.5h-0.5v-3.4h0.5v-0.5h0.5v-0.5h2.9v0.5h0.5v0.5h0.5v3.4H-75v0.5h-0.5v0.5H-78.5z M-78,179.5h2
		V179h0.5v-2.4H-76v-0.5h-2v0.5h-0.5v2.4h0.5V179.5z"/>
	<path d="M-72.6,177.6v2.9h-1v-5.4h1v1h0.5v-0.5h0.5v-0.5h2v0.5h0.5v0.5h0.5v1h-1v-0.5h-0.5v-0.5h-1v0.5h-0.5v0.5h-0.5v0.5H-72.6z"
		/>
	<path d="M-65.3,174.6v1h-1v-1H-65.3z M-65.3,178.5v1h-1v-1H-65.3z"/>
</g>
</svg>
