<?xml version="1.0" encoding="utf-8"?>
<!-- Generator: Adobe Illustrator 16.0.3, SVG Export Plug-In . SVG Version: 6.00 Build 0)  -->
<!DOCTYPE svg PUBLIC "-//W3C//DTD SVG 1.1//EN" "http://www.w3.org/Graphics/SVG/1.1/DTD/svg11.dtd">
<svg version="1.1" xmlns="http://www.w3.org/2000/svg" xmlns:xlink="http://www.w3.org/1999/xlink" x="0px" y="0px"
	 width="247.482px" height="217.949px" viewBox="0 0 247.482 217.949" enable-background="new 0 0 247.482 217.949"
	 xml:space="preserve">
<g id="Layer_2" display="none">
	<polyline display="inline" fill="#FFFFFF" points="680.439,734.013 -399.561,734.013 -399.561,-345.987 680.439,-345.987 	"/>
</g>
<g id="Layer_11" display="none">
	<linearGradient id="SVGID_1_" gradientUnits="userSpaceOnUse" x1="-403.4399" y1="-346.8677" x2="684.5626" y2="735.1355">
		<stop  offset="0.086" style="stop-color:#FBAF40"/>
		<stop  offset="0.8322" style="stop-color:#FB7240"/>
		<stop  offset="1" style="stop-color:#FB6440"/>
	</linearGradient>
	<polyline display="inline" fill="url(#SVGID_1_)" points="680.439,734.013 -399.561,734.013 -399.561,-345.987 680.439,-345.987 	
		"/>
</g>
<g id="Layer_10" display="none">
</g>
<g id="Layer_7_copy_3" display="none">
	<g display="inline">
	</g>
	<polygon display="inline" points="102.629,-27.498 -45.934,12.07 -45.934,12.075 -96.809,25.628 -45.949,39.176 -45.934,39.171 
		-45.934,39.167 -45.919,39.172 4.942,25.624 80.914,5.388 72.51,43.625 66.884,69.22 31.729,229.18 58.696,229.18 92.25,75.979 
		97.858,50.378 109.375,-2.203 	"/>
	<g display="inline">
		<path d="M239.204,63.986v31.012l-52.765,130.989h-39.344l50.915-126.361h-65.264v-35.64H239.204z"/>
		<path fill="#FB6440" d="M219.532,207.242c0-12.035,9.95-21.986,21.984-21.986c12.035,0,21.987,9.951,21.987,21.986
			c0,12.034-9.952,21.985-21.987,21.985C229.482,229.228,219.532,219.276,219.532,207.242z"/>
	</g>
</g>
<g id="Layer_7" display="none">
	<g display="inline">
		<polygon fill="#211C1A" points="139.872,136.702 139.898,136.695 139.872,136.687 		"/>
		<polygon fill="#FFC536" points="-101.244,28.463 -112.193,69.526 -29.923,445.152 13.868,445.152 -65.991,81.85 139.872,136.687 
			139.872,92.698 		"/>
		<polygon fill="#333333" points="381.049,28.463 139.872,92.698 139.872,92.705 57.281,114.708 139.849,136.702 139.872,136.694 
			139.872,136.687 139.898,136.695 222.465,114.702 345.796,81.85 332.152,143.923 323.021,185.475 265.95,445.152 309.728,445.152 
			364.2,196.445 373.304,154.887 391.998,69.526 		"/>
		<polygon fill="#FFA836" points="139.901,38.894 229.484,62.837 311.792,40.845 139.91,-5.081 139.908,-5.085 139.901,-5.083 
			139.899,-5.083 139.896,-5.083 -32.047,40.849 50.203,62.826 		"/>
	</g>
</g>
<g id="Layer_7_copy_4" display="none">
	<polygon display="inline" fill="#211C1A" points="139.872,136.702 139.898,136.695 139.872,136.687 	"/>
	<g display="inline">
		<polygon fill="#FBAF40" points="-101.244,28.463 -112.193,69.526 -29.923,445.152 13.868,445.152 -65.991,81.85 139.872,136.687 
			139.872,92.698 		"/>
		<polygon fill="#FB6440" points="139.901,38.894 229.484,62.837 311.792,40.845 139.91,-5.081 139.908,-5.085 139.901,-5.083 
			139.899,-5.083 139.896,-5.083 -32.047,40.849 50.203,62.826 		"/>
	</g>
	<polygon display="inline" fill="#444444" points="381.049,28.463 139.872,92.698 139.872,92.705 57.281,114.708 139.849,136.702 
		139.872,136.694 139.872,136.687 139.898,136.695 222.465,114.702 345.796,81.85 332.152,143.923 323.021,185.475 265.95,445.152 
		309.728,445.152 364.2,196.445 373.304,154.887 391.998,69.526 	"/>
</g>
<g id="Layer_7_copy_2" display="none">
	<polygon display="inline" fill="#211C1A" points="139.878,145.39 139.899,145.385 139.878,145.378 	"/>
	<g display="inline">
		<linearGradient id="SVGID_2_" gradientUnits="userSpaceOnUse" x1="-145.2168" y1="47.4692" x2="301.0378" y2="471.0053">
			<stop  offset="0.1667" style="stop-color:#FBAF40"/>
			<stop  offset="0.503" style="stop-color:#FB7640"/>
			<stop  offset="0.6022" style="stop-color:#FB6440"/>
		</linearGradient>
		<polygon fill="url(#SVGID_2_)" points="-55.758,57.568 -64.642,90.886 2.11,395.659 37.642,395.659 -27.154,100.885 
			139.878,145.378 139.878,109.687 		"/>
		<linearGradient id="SVGID_3_" gradientUnits="userSpaceOnUse" x1="-20.1719" y1="-84.2856" x2="426.0865" y2="339.2541">
			<stop  offset="0.1667" style="stop-color:#FBAF40"/>
			<stop  offset="0.503" style="stop-color:#FB7640"/>
			<stop  offset="0.6022" style="stop-color:#FB6440"/>
		</linearGradient>
		<polygon fill="url(#SVGID_3_)" points="139.901,66.032 212.587,85.458 279.369,67.614 139.909,30.352 139.907,30.348 
			139.901,30.35 139.9,30.35 139.897,30.35 0.387,67.618 67.123,85.449 		"/>
		<linearGradient id="SVGID_4_" gradientUnits="userSpaceOnUse" x1="14.7998" y1="-121.1274" x2="461.0478" y2="302.4024">
			<stop  offset="0.1667" style="stop-color:#FBAF40"/>
			<stop  offset="0.503" style="stop-color:#FB7640"/>
			<stop  offset="0.6022" style="stop-color:#FB6440"/>
		</linearGradient>
		<circle fill="url(#SVGID_4_)" cx="139.903" cy="-2.392" r="27.738"/>
	</g>
	<polygon display="inline" fill="#444444" points="335.563,57.568 139.878,109.687 139.878,109.692 72.865,127.545 139.858,145.39 
		139.878,145.384 139.878,145.378 139.899,145.385 206.892,127.54 306.959,100.885 295.889,151.25 288.479,184.964 242.175,395.659 
		277.694,395.659 321.892,193.865 329.278,160.146 344.446,90.886 	"/>
</g>
<g id="Layer_8">
	<g>
		<polygon fill="#211C1A" points="123.73,96.184 123.73,96.186 123.74,96.184 123.73,96.18 		"/>
		<linearGradient id="SVGID_5_" gradientUnits="userSpaceOnUse" x1="15.1641" y1="29.6211" x2="217.9001" y2="222.0359">
			<stop  offset="0.1667" style="stop-color:#FBAF40"/>
			<stop  offset="0.503" style="stop-color:#FB7640"/>
			<stop  offset="0.6022" style="stop-color:#FB6440"/>
		</linearGradient>
		<polygon fill="url(#SVGID_5_)" points="123.73,79.966 34.852,56.288 30.816,71.424 37.936,103.928 53.992,103.928 47.846,75.967 
			93.301,88.074 123.73,79.968 		"/>
		<linearGradient id="SVGID_6_" gradientUnits="userSpaceOnUse" x1="51.0195" y1="-8.1567" x2="253.7556" y2="184.2582">
			<stop  offset="0.1667" style="stop-color:#FBAF40"/>
			<stop  offset="0.503" style="stop-color:#FB7640"/>
			<stop  offset="0.6022" style="stop-color:#FB6440"/>
		</linearGradient>
		<polygon fill="url(#SVGID_6_)" points="123.74,60.133 156.762,68.958 187.102,60.852 123.744,43.923 123.744,43.921 
			123.74,43.922 123.74,43.922 123.738,43.922 60.359,60.854 90.678,68.955 		"/>
		<linearGradient id="SVGID_7_" gradientUnits="userSpaceOnUse" x1="16.5762" y1="28.1333" x2="219.3148" y2="220.5506">
			<stop  offset="0.1667" style="stop-color:#FBAF40"/>
			<stop  offset="0.503" style="stop-color:#FB7640"/>
			<stop  offset="0.6022" style="stop-color:#FB6440"/>
		</linearGradient>
		<circle fill="url(#SVGID_7_)" cx="30.816" cy="41.649" r="12.601"/>
		<linearGradient id="SVGID_8_" gradientUnits="userSpaceOnUse" x1="66.9053" y1="-24.896" x2="269.6439" y2="167.5213">
			<stop  offset="0.1667" style="stop-color:#FBAF40"/>
			<stop  offset="0.503" style="stop-color:#FB7640"/>
			<stop  offset="0.6022" style="stop-color:#FB6440"/>
		</linearGradient>
		<circle fill="url(#SVGID_8_)" cx="123.742" cy="29.048" r="12.601"/>
		<linearGradient id="SVGID_9_" gradientUnits="userSpaceOnUse" x1="104.6494" y1="-64.665" x2="307.3862" y2="127.7505">
			<stop  offset="0.1667" style="stop-color:#FBAF40"/>
			<stop  offset="0.503" style="stop-color:#FB7640"/>
			<stop  offset="0.6022" style="stop-color:#FB6440"/>
		</linearGradient>
		<circle fill="url(#SVGID_9_)" cx="216.666" cy="41.649" r="12.601"/>
		<polygon points="193.49,103.928 209.549,103.928 209.775,102.889 216.666,71.424 212.631,56.288 123.73,79.966 123.73,79.968 
			93.301,88.074 93.287,88.078 123.721,96.186 123.73,96.184 123.73,96.18 123.74,96.184 154.176,88.076 199.637,75.967 
			194.607,98.848 		"/>
		<polygon points="133.85,193.104 168.611,193.104 168.611,181.516 146.598,181.516 146.598,157.762 164.092,157.762 
			164.092,146.174 146.598,146.174 146.598,123.574 168.611,123.574 168.611,111.988 133.85,111.988 		"/>
		<polygon points="45.311,193.104 80.072,193.104 80.072,181.516 58.059,181.516 58.059,157.762 75.561,157.762 75.561,146.174 
			58.059,146.174 58.059,123.574 80.072,123.574 80.072,111.988 45.311,111.988 		"/>
		<polygon points="87.143,123.574 112.525,123.574 93.865,193.104 106.617,193.104 125.385,123.113 125.385,111.988 87.143,111.988 
					"/>
		<path d="M23.984,148.26c-8.338-7.299-10.891-11.705-10.891-17.615c0-5.797,2.32-7.996,6.373-7.996
			c4.057,0,6.375,2.199,6.375,7.996v3.359h12.051v-2.549c0-12.98-6.371-20.395-18.77-20.395c-12.402,0-18.775,7.414-18.775,20.395
			c0,9.27,3.361,15.992,14.021,25.379c8.346,7.301,10.895,11.703,10.895,17.613c0,5.797-2.549,7.883-6.605,7.883
			c-4.061,0-6.609-2.086-6.609-7.883v-5.793H0v4.98c0,12.986,6.486,20.396,19.006,20.396c12.516,0,19.002-7.41,19.002-20.396
			C38.008,164.369,34.652,157.645,23.984,148.26z"/>
		<polygon points="235.426,134.934 235.426,193.104 247.482,193.104 247.482,111.988 229.748,111.988 221.174,169.582 
			220.941,169.582 211.674,111.988 193.939,111.988 193.939,193.104 205.066,193.104 205.066,135.746 205.297,135.746 
			214.566,193.104 226.617,193.104 235.191,134.934 		"/>
		<polygon points="227.719,200.645 231.037,200.645 231.037,217.949 234.209,217.949 234.209,200.645 237.527,200.645 
			237.527,197.76 227.719,197.76 		"/>
		<path d="M244.389,206.787c-2.076-1.818-2.711-2.91-2.711-4.385c0-1.441,0.578-1.988,1.588-1.988c1.008,0,1.586,0.547,1.586,1.988
			v0.838h2.996v-0.635c0-3.229-1.584-5.076-4.67-5.076s-4.672,1.848-4.672,5.076c0,2.311,0.838,3.979,3.488,6.314
			c2.076,1.818,2.715,2.914,2.715,4.381c0,1.441-0.639,1.961-1.646,1.961s-1.645-0.52-1.645-1.961v-1.438h-2.996v1.238
			c0,3.229,1.615,5.076,4.727,5.076c3.115,0,4.73-1.848,4.73-5.076C247.879,210.795,247.041,209.125,244.389,206.787z"/>
		<path d="M201.533,207.221v-0.059c1.416-0.662,2.049-1.959,2.049-4.037v-0.723c0-3.113-1.412-4.643-4.701-4.643h-4.787v20.189
			h4.988c3.174,0,4.816-1.676,4.816-4.789v-1.641C203.898,209.383,203.236,207.885,201.533,207.221z M197.266,200.645h1.531
			c1.123,0,1.611,0.635,1.611,2.076v1.125c0,1.613-0.719,2.133-1.9,2.133h-1.242V200.645z M200.727,213.074
			c0,1.498-0.578,1.984-1.645,1.984h-1.816v-6.193h1.414c1.441,0,2.047,0.576,2.047,2.451V213.074z"/>
		<path d="M210.357,197.529c-3.113,0-4.814,1.848-4.814,5.076v10.496c0,3.229,1.701,5.076,4.814,5.076
			c3.117,0,4.818-1.848,4.818-5.076v-10.496C215.176,199.377,213.475,197.529,210.357,197.529z M212.004,213.301
			c0,1.441-0.637,1.992-1.646,1.992c-1.008,0-1.643-0.551-1.643-1.992v-10.898c0-1.441,0.635-1.988,1.643-1.988
			c1.01,0,1.646,0.547,1.646,1.988V213.301z"/>
		<path d="M221.781,197.529c-3.117,0-4.818,1.848-4.818,5.076v10.496c0,3.229,1.701,5.076,4.818,5.076
			c3.113,0,4.814-1.848,4.814-5.076v-10.496C226.596,199.377,224.895,197.529,221.781,197.529z M223.424,213.301
			c0,1.441-0.637,1.992-1.643,1.992c-1.014,0-1.646-0.551-1.646-1.992l-0.002-10.898c0-1.441,0.635-1.988,1.648-1.988
			c1.006,0,1.643,0.547,1.643,1.988V213.301z"/>
		<path fill="#FB6440" d="M181.279,180.438c-3.488,0-6.338,2.852-6.338,6.332c0,3.492,2.85,6.334,6.338,6.334
			c3.49,0,6.334-2.842,6.334-6.334C187.613,183.289,184.77,180.438,181.279,180.438z"/>
	</g>
	<g>
		<linearGradient id="SVGID_10_" gradientUnits="userSpaceOnUse" x1="97.4111" y1="20.7773" x2="136.9082" y2="20.7773">
			<stop  offset="0" style="stop-color:#A0000C"/>
			<stop  offset="0.3387" style="stop-color:#BD0E18"/>
			<stop  offset="0.7097" style="stop-color:#E11F27"/>
		</linearGradient>
		<path fill="url(#SVGID_10_)" d="M106.935,23.275c0,0-2.427-4.618-2.758-9.581l0.698,4.093c0,0-4.559,10.892-6.323,22.267
			c0,0-3.081-16.312,0.883-27.462c2.379-6.691,9.279-9.707,12.357-10.809c3.54-1.268,12.51,2.058,15.085,3.86
			c5.829,4.081,10.031,12.132,10.031,12.132L106.935,23.275z"/>
		<radialGradient id="SVGID_11_" cx="97.9453" cy="39.6313" r="3.5653" gradientUnits="userSpaceOnUse">
			<stop  offset="0.4892" style="stop-color:#FFFFFF"/>
			<stop  offset="0.6192" style="stop-color:#F6F6F6"/>
			<stop  offset="0.8344" style="stop-color:#DCDCDC"/>
			<stop  offset="1" style="stop-color:#C4C4C4"/>
		</radialGradient>
		<circle fill="url(#SVGID_11_)" cx="98.608" cy="39.557" r="3.364"/>
		<g>
			<linearGradient id="SVGID_12_" gradientUnits="userSpaceOnUse" x1="100.1299" y1="26.7285" x2="148.4372" y2="11.3981">
				<stop  offset="0" style="stop-color:#000000"/>
				<stop  offset="0.039" style="stop-color:#2B2B2B"/>
				<stop  offset="0.09" style="stop-color:#5C5C5C"/>
				<stop  offset="0.1437" style="stop-color:#888888"/>
				<stop  offset="0.1993" style="stop-color:#ADADAD"/>
				<stop  offset="0.257" style="stop-color:#CBCBCB"/>
				<stop  offset="0.3176" style="stop-color:#E2E2E2"/>
				<stop  offset="0.3825" style="stop-color:#F2F2F2"/>
				<stop  offset="0.4546" style="stop-color:#FCFCFC"/>
				<stop  offset="0.5484" style="stop-color:#FFFFFF"/>
				<stop  offset="0.6035" style="stop-color:#FBFBFB"/>
				<stop  offset="0.66" style="stop-color:#EFEFEF"/>
				<stop  offset="0.7171" style="stop-color:#DADADA"/>
				<stop  offset="0.7747" style="stop-color:#BDBDBD"/>
				<stop  offset="0.8328" style="stop-color:#989898"/>
				<stop  offset="0.8911" style="stop-color:#6B6B6B"/>
				<stop  offset="0.9485" style="stop-color:#363636"/>
				<stop  offset="1" style="stop-color:#000000"/>
			</linearGradient>
			<path fill="url(#SVGID_12_)" d="M111.982,22.848c1.799-3.58,10.803-6.334,22.913-5.173c0.735,0.047,1.476,0.116,2.224,0.214
				c-0.355-0.568-0.963-0.969-1.682-1.029c-17.092-1.447-27.247,5.294-27.672,5.582c-1.006,0.683-1.267,2.048-0.588,3.057
				c0.199,0.293,0.456,0.521,0.744,0.683c1.29-0.922,3.063-2.085,5.224-3.255C112.731,22.954,112.218,22.981,111.982,22.848z"/>
			<linearGradient id="SVGID_13_" gradientUnits="userSpaceOnUse" x1="100.5605" y1="28.0898" x2="148.8733" y2="12.7577">
				<stop  offset="0" style="stop-color:#000000"/>
				<stop  offset="0.039" style="stop-color:#2B2B2B"/>
				<stop  offset="0.09" style="stop-color:#5C5C5C"/>
				<stop  offset="0.1437" style="stop-color:#888888"/>
				<stop  offset="0.1993" style="stop-color:#ADADAD"/>
				<stop  offset="0.257" style="stop-color:#CBCBCB"/>
				<stop  offset="0.3176" style="stop-color:#E2E2E2"/>
				<stop  offset="0.3825" style="stop-color:#F2F2F2"/>
				<stop  offset="0.4546" style="stop-color:#FCFCFC"/>
				<stop  offset="0.5484" style="stop-color:#FFFFFF"/>
				<stop  offset="0.6035" style="stop-color:#FBFBFB"/>
				<stop  offset="0.66" style="stop-color:#EFEFEF"/>
				<stop  offset="0.7171" style="stop-color:#DADADA"/>
				<stop  offset="0.7747" style="stop-color:#BDBDBD"/>
				<stop  offset="0.8328" style="stop-color:#989898"/>
				<stop  offset="0.8911" style="stop-color:#6B6B6B"/>
				<stop  offset="0.9485" style="stop-color:#363636"/>
				<stop  offset="1" style="stop-color:#000000"/>
			</linearGradient>
			<path fill="url(#SVGID_13_)" d="M113.582,22.903c-0.111,0-0.266,0.011-0.437,0.023c-2.16,1.169-3.934,2.333-5.224,3.255
				c0.333,0.188,0.707,0.289,1.088,0.289c0.423,0,0.851-0.121,1.228-0.374c0.004-0.003,0.028-0.019,0.071-0.046
				C110.889,25.515,113.947,22.903,113.582,22.903z"/>
			<linearGradient id="SVGID_14_" gradientUnits="userSpaceOnUse" x1="101.0146" y1="29.5347" x2="149.3297" y2="14.2018">
				<stop  offset="0" style="stop-color:#000000"/>
				<stop  offset="0.039" style="stop-color:#2B2B2B"/>
				<stop  offset="0.09" style="stop-color:#5C5C5C"/>
				<stop  offset="0.1437" style="stop-color:#888888"/>
				<stop  offset="0.1993" style="stop-color:#ADADAD"/>
				<stop  offset="0.257" style="stop-color:#CBCBCB"/>
				<stop  offset="0.3176" style="stop-color:#E2E2E2"/>
				<stop  offset="0.3825" style="stop-color:#F2F2F2"/>
				<stop  offset="0.4546" style="stop-color:#FCFCFC"/>
				<stop  offset="0.5484" style="stop-color:#FFFFFF"/>
				<stop  offset="0.6035" style="stop-color:#FBFBFB"/>
				<stop  offset="0.66" style="stop-color:#EFEFEF"/>
				<stop  offset="0.7171" style="stop-color:#DADADA"/>
				<stop  offset="0.7747" style="stop-color:#BDBDBD"/>
				<stop  offset="0.8328" style="stop-color:#989898"/>
				<stop  offset="0.8911" style="stop-color:#6B6B6B"/>
				<stop  offset="0.9485" style="stop-color:#363636"/>
				<stop  offset="1" style="stop-color:#000000"/>
			</linearGradient>
			<path fill="url(#SVGID_14_)" d="M137.119,17.927c0.211,0.336,0.334,0.731,0.338,1.15c0.003-0.433-0.12-0.841-0.338-1.188
				c-0.748-0.098-1.488-0.167-2.224-0.214C135.627,17.745,136.367,17.828,137.119,17.927z"/>
			<linearGradient id="SVGID_15_" gradientUnits="userSpaceOnUse" x1="122.1621" y1="14.7065" x2="124.5277" y2="25.8818">
				<stop  offset="0.2366" style="stop-color:#FFFFFF;stop-opacity:0"/>
				<stop  offset="0.4839" style="stop-color:#FFFFFF;stop-opacity:0"/>
				<stop  offset="0.5026" style="stop-color:#F5F5F5;stop-opacity:0.0448"/>
				<stop  offset="0.5983" style="stop-color:#C5C5C5;stop-opacity:0.2728"/>
				<stop  offset="0.6891" style="stop-color:#9F9F9F;stop-opacity:0.4893"/>
				<stop  offset="0.7728" style="stop-color:#848484;stop-opacity:0.6889"/>
				<stop  offset="0.8467" style="stop-color:#737373;stop-opacity:0.8653"/>
				<stop  offset="0.9032" style="stop-color:#6E6E6E"/>
			</linearGradient>
			<path fill="url(#SVGID_15_)" d="M137.449,19.244c-0.103,1.214-1.175,2.114-2.384,2.012c-14.732-1.246-23.864,4.233-24.757,4.795
				c-0.089,0.083-0.122,0.117-0.071,0.083c0.093-0.062,9.382-6.147,24.828-4.841c1.209,0.103,2.281-0.798,2.384-2.012
				c0.006-0.068,0.008-0.136,0.008-0.203C137.456,19.133,137.454,19.188,137.449,19.244z"/>
			<linearGradient id="SVGID_16_" gradientUnits="userSpaceOnUse" x1="100.1084" y1="26.6597" x2="148.4148" y2="11.3296">
				<stop  offset="0" style="stop-color:#000000"/>
				<stop  offset="0.039" style="stop-color:#2B2B2B"/>
				<stop  offset="0.09" style="stop-color:#5C5C5C"/>
				<stop  offset="0.1437" style="stop-color:#888888"/>
				<stop  offset="0.1993" style="stop-color:#ADADAD"/>
				<stop  offset="0.257" style="stop-color:#CBCBCB"/>
				<stop  offset="0.3176" style="stop-color:#E2E2E2"/>
				<stop  offset="0.3825" style="stop-color:#F2F2F2"/>
				<stop  offset="0.4546" style="stop-color:#FCFCFC"/>
				<stop  offset="0.5484" style="stop-color:#FFFFFF"/>
				<stop  offset="0.6035" style="stop-color:#FBFBFB"/>
				<stop  offset="0.66" style="stop-color:#EFEFEF"/>
				<stop  offset="0.7171" style="stop-color:#DADADA"/>
				<stop  offset="0.7747" style="stop-color:#BDBDBD"/>
				<stop  offset="0.8328" style="stop-color:#989898"/>
				<stop  offset="0.8911" style="stop-color:#6B6B6B"/>
				<stop  offset="0.9485" style="stop-color:#363636"/>
				<stop  offset="1" style="stop-color:#000000"/>
			</linearGradient>
			<path fill="url(#SVGID_16_)" d="M111.982,22.848c0.235,0.133,0.749,0.105,1.163,0.078c5.33-2.888,13.032-5.81,21.75-5.251
				C122.785,16.514,113.781,19.268,111.982,22.848z"/>
			<linearGradient id="SVGID_17_" gradientUnits="userSpaceOnUse" x1="122.2588" y1="14.6851" x2="124.625" y2="25.8629">
				<stop  offset="0.2366" style="stop-color:#FFFFFF;stop-opacity:0"/>
				<stop  offset="0.4839" style="stop-color:#FFFFFF;stop-opacity:0"/>
				<stop  offset="0.5026" style="stop-color:#F5F5F5;stop-opacity:0.0448"/>
				<stop  offset="0.5983" style="stop-color:#C5C5C5;stop-opacity:0.2728"/>
				<stop  offset="0.6891" style="stop-color:#9F9F9F;stop-opacity:0.4893"/>
				<stop  offset="0.7728" style="stop-color:#848484;stop-opacity:0.6889"/>
				<stop  offset="0.8467" style="stop-color:#737373;stop-opacity:0.8653"/>
				<stop  offset="0.9032" style="stop-color:#6E6E6E"/>
			</linearGradient>
			<path fill="url(#SVGID_17_)" d="M111.982,22.848c0.235,0.133,0.749,0.105,1.163,0.078c5.33-2.888,13.032-5.81,21.75-5.251
				C122.785,16.514,113.781,19.268,111.982,22.848z"/>
			<linearGradient id="SVGID_18_" gradientUnits="userSpaceOnUse" x1="100.8818" y1="29.0981" x2="149.1895" y2="13.7676">
				<stop  offset="0" style="stop-color:#000000"/>
				<stop  offset="0.039" style="stop-color:#2B2B2B"/>
				<stop  offset="0.09" style="stop-color:#5C5C5C"/>
				<stop  offset="0.1437" style="stop-color:#888888"/>
				<stop  offset="0.1993" style="stop-color:#ADADAD"/>
				<stop  offset="0.257" style="stop-color:#CBCBCB"/>
				<stop  offset="0.3176" style="stop-color:#E2E2E2"/>
				<stop  offset="0.3825" style="stop-color:#F2F2F2"/>
				<stop  offset="0.4546" style="stop-color:#FCFCFC"/>
				<stop  offset="0.5484" style="stop-color:#FFFFFF"/>
				<stop  offset="0.6035" style="stop-color:#FBFBFB"/>
				<stop  offset="0.66" style="stop-color:#EFEFEF"/>
				<stop  offset="0.7171" style="stop-color:#DADADA"/>
				<stop  offset="0.7747" style="stop-color:#BDBDBD"/>
				<stop  offset="0.8328" style="stop-color:#989898"/>
				<stop  offset="0.8911" style="stop-color:#6B6B6B"/>
				<stop  offset="0.9485" style="stop-color:#363636"/>
				<stop  offset="1" style="stop-color:#000000"/>
			</linearGradient>
			<path fill="url(#SVGID_18_)" d="M135.065,21.255c1.209,0.103,2.281-0.798,2.384-2.012c0.005-0.056,0.007-0.111,0.008-0.166
				c-0.004-0.419-0.127-0.814-0.338-1.15c-0.752-0.1-1.492-0.182-2.224-0.252c-8.718-0.559-16.42,2.363-21.75,5.251
				c0.171-0.012,0.325-0.023,0.437-0.023c0.365,0-2.693,2.612-3.273,3.147C111.201,25.488,120.333,20.01,135.065,21.255z"/>
			<linearGradient id="SVGID_19_" gradientUnits="userSpaceOnUse" x1="122.2383" y1="14.6904" x2="124.604" y2="25.8661">
				<stop  offset="0.2366" style="stop-color:#FFFFFF;stop-opacity:0"/>
				<stop  offset="0.4839" style="stop-color:#FFFFFF;stop-opacity:0"/>
				<stop  offset="0.5026" style="stop-color:#F5F5F5;stop-opacity:0.0448"/>
				<stop  offset="0.5983" style="stop-color:#C5C5C5;stop-opacity:0.2728"/>
				<stop  offset="0.6891" style="stop-color:#9F9F9F;stop-opacity:0.4893"/>
				<stop  offset="0.7728" style="stop-color:#848484;stop-opacity:0.6889"/>
				<stop  offset="0.8467" style="stop-color:#737373;stop-opacity:0.8653"/>
				<stop  offset="0.9032" style="stop-color:#6E6E6E"/>
			</linearGradient>
			<path fill="url(#SVGID_19_)" d="M135.065,21.255c1.209,0.103,2.281-0.798,2.384-2.012c0.005-0.056,0.007-0.111,0.008-0.166
				c-0.004-0.419-0.127-0.814-0.338-1.15c-0.752-0.1-1.492-0.182-2.224-0.252c-8.718-0.559-16.42,2.363-21.75,5.251
				c0.171-0.012,0.325-0.023,0.437-0.023c0.365,0-2.693,2.612-3.273,3.147C111.201,25.488,120.333,20.01,135.065,21.255z"/>
		</g>
	</g>
</g>
<g id="Layer_7_copy" display="none">
	<g display="inline">
		<polygon fill="#FFFFFF" points="139.878,145.479 139.899,145.474 139.878,145.468 		"/>
		<polygon fill="#FFFFFF" points="-55.292,57.866 -64.154,91.105 2.438,395.152 37.885,395.152 -26.757,101.08 139.878,145.468 
			139.878,109.861 		"/>
		<polygon fill="#FFFFFF" points="335.097,57.866 139.878,109.861 139.878,109.867 73.025,127.677 139.859,145.479 139.878,145.473 
			139.878,145.468 139.899,145.474 206.732,127.672 306.562,101.08 295.518,151.325 288.126,184.958 241.931,395.152 
			277.366,395.152 321.459,193.839 328.827,160.199 343.959,91.105 		"/>
		<polygon fill="#FFFFFF" points="139.901,66.31 212.414,85.69 279.037,67.889 139.909,30.714 139.907,30.711 139.901,30.712 
			139.9,30.712 139.897,30.712 0.72,67.892 67.296,85.681 		"/>
		<circle fill="#FFFFFF" cx="139.903" cy="-1.951" r="27.671"/>
	</g>
</g>
<g id="Layer_9" display="none">
</g>
<g id="Layer_12" display="none">
</g>
</svg>
